<svg width="9" height="8" viewBox="0 0 9 8" fill="none" xmlns="http://www.w3.org/2000/svg">
<path d="M6.97001 0.970002C7.11087 0.835891 7.29833 0.761749 7.49282 0.76322C7.68732 0.764692 7.87363 0.841662 8.01245 0.97789C8.15127 1.11412 8.23175 1.29895 8.23689 1.49338C8.24203 1.68781 8.17143 1.87663 8.04001 2.02L4.05001 7.01C3.9814 7.0839 3.89859 7.1432 3.80654 7.18437C3.71448 7.22553 3.61508 7.24771 3.51426 7.24958C3.41344 7.25145 3.31328 7.23296 3.21976 7.19523C3.12625 7.15751 3.0413 7.10131 2.97001 7.03L0.324005 4.384C0.250318 4.31534 0.191216 4.23254 0.150224 4.14054C0.109232 4.04854 0.0871901 3.94923 0.0854134 3.84852C0.0836366 3.74782 0.102161 3.64779 0.139882 3.5544C0.177603 3.46102 0.233748 3.37618 0.304967 3.30496C0.376186 3.23374 0.461019 3.1776 0.554407 3.13988C0.647796 3.10216 0.747825 3.08363 0.848528 3.08541C0.949231 3.08719 1.04854 3.10923 1.14054 3.15022C1.23254 3.19121 1.31534 3.25031 1.384 3.324L3.47801 5.417L6.95101 0.992002C6.95726 0.984303 6.96393 0.976958 6.971 0.970002H6.97001Z" fill="#060606"/>
</svg>
