<svg width="16" height="16" viewBox="0 0 16 16" fill="none" xmlns="http://www.w3.org/2000/svg">
<path d="M11.742 10.344C12.7103 9.02268 13.144 7.38448 12.9563 5.75714C12.7687 4.1298 11.9735 2.63333 10.7298 1.56712C9.48616 0.500915 7.88579 -0.0564028 6.24888 0.0066704C4.61197 0.0697435 3.05923 0.748556 1.90131 1.9073C0.743395 3.06605 0.0656939 4.61927 0.00379204 6.25623C-0.0581098 7.89318 0.500353 9.49315 1.56745 10.736C2.63455 11.9789 4.13159 12.7731 5.75906 12.9596C7.38654 13.1461 9.02442 12.7112 10.345 11.742H10.344C10.374 11.782 10.406 11.82 10.442 11.857L14.292 15.707C14.4796 15.8946 14.7339 16.0001 14.9992 16.0002C15.2645 16.0003 15.5189 15.895 15.7065 15.7075C15.8942 15.52 15.9997 15.2656 15.9997 15.0003C15.9998 14.7351 15.8946 14.4806 15.707 14.293L11.857 10.443C11.8213 10.4068 11.7828 10.3744 11.742 10.344ZM12 6.49999C12 7.22226 11.8578 7.93746 11.5814 8.60475C11.305 9.27204 10.8999 9.87836 10.3891 10.3891C9.87841 10.8998 9.27209 11.3049 8.6048 11.5813C7.93751 11.8577 7.22231 12 6.50004 12C5.77777 12 5.06258 11.8577 4.39528 11.5813C3.72799 11.3049 3.12168 10.8998 2.61096 10.3891C2.10023 9.87836 1.69511 9.27204 1.41871 8.60475C1.14231 7.93746 1.00004 7.22226 1.00004 6.49999C1.00004 5.0413 1.57951 3.64236 2.61096 2.61091C3.64241 1.57946 5.04135 0.999994 6.50004 0.999994C7.95873 0.999994 9.35768 1.57946 10.3891 2.61091C11.4206 3.64236 12 5.0413 12 6.49999Z" fill="#A1A1A1"/>
</svg>
