<svg width="16" height="16" viewBox="0 0 16 16" fill="none" xmlns="http://www.w3.org/2000/svg">
<g clip-path="url(#clip0_7_522)">
<path d="M3.612 15.443C3.226 15.641 2.788 15.294 2.866 14.851L3.696 10.121L0.172996 6.765C-0.156004 6.451 0.0149962 5.877 0.455996 5.815L5.354 5.119L7.538 0.791996C7.735 0.401996 8.268 0.401996 8.465 0.791996L10.649 5.119L15.547 5.815C15.988 5.877 16.159 6.451 15.829 6.765L12.307 10.121L13.137 14.851C13.215 15.294 12.777 15.641 12.391 15.443L8 13.187L3.612 15.443Z" fill="#C5C4C2"/>
<path d="M3.11221 14.8943L3.11223 14.8942L3.94223 10.1642L3.96537 10.0323L3.86843 9.93998L0.345602 6.58415C0.345583 6.58413 0.345564 6.58411 0.345545 6.58409C0.155738 6.40285 0.273082 6.09317 0.490801 6.06256L0.491168 6.06251L5.38917 5.36651L5.51837 5.34815L5.57718 5.23165L7.76114 0.904714C7.86567 0.69778 8.13725 0.697758 8.24181 0.904645C8.24183 0.904668 8.24184 0.904691 8.24185 0.904714L10.4258 5.23165L10.4846 5.34815L10.6138 5.36651L15.5118 6.06251L15.5122 6.06256C15.7298 6.09316 15.8472 6.40263 15.6567 6.58388L15.6565 6.58401L12.1345 9.94001L12.0376 10.0324L12.0608 10.1642L12.8908 14.8942L12.8908 14.8943C12.9375 15.1599 12.6843 15.3124 12.5052 15.2206C12.5052 15.2206 12.5051 15.2206 12.5051 15.2206L8.11424 12.9646L7.99996 12.9059L7.88569 12.9647L3.49789 15.2206C3.31876 15.3124 3.06545 15.1599 3.11221 14.8943Z" stroke="#6F6F6F" stroke-opacity="0.07" stroke-width="0.5"/>
</g>
<defs>
<clipPath id="clip0_7_522">
<rect width="16" height="16" fill="white"/>
</clipPath>
</defs>
</svg>
